<?xml version="1.0" encoding="utf-8"?>
<!-- Generator: Adobe Illustrator 26.3.1, SVG Export Plug-In . SVG Version: 6.00 Build 0)  -->
<svg version="1.1" id="Calque_1" xmlns="http://www.w3.org/2000/svg" xmlns:xlink="http://www.w3.org/1999/xlink" x="0px" y="0px"
	 viewBox="0 0 140.62 97.89" style="enable-background:new 0 0 140.62 97.89;" xml:space="preserve">
<style type="text/css">
	.st0{fill:#0053A1;}
	.st1{fill:#009453;}
	.st2{fill:#E50043;}
</style>
<g>
	<path class="st0" d="M61.75,3.9v3.25l-0.29,0.3C40.6,15.07,16.31,27.13,7.08,50.1c-2.4,5.98-2.65,13.93-0.75,20.21
		c0.05,0.1,0,0.29-0.1,0.34c-6.94-10.33-2.84-25.35,3.4-34.88C22.6,17.31,42.01,6.99,61.26,0C62.21,0.95,61.61,2.6,61.75,3.9z"/>
	<path class="st1" d="M88.01,5.75c0.34,2.24,0.1,4.74,0.2,7.13c-2.4,0.9-4.99,1.29-7.44,2.04c-26.24,6.73-54.07,15.47-69.99,41.21
		c-2,3.45-3.24,7.19-3.8,11.23c-1.89-8.69,2.89-15.68,7.33-22.21c16.68-21.35,40.76-29.33,64.06-37
		C81.57,7.29,84.72,6.39,88.01,5.75z"/>
	<path class="st2" d="M140.44,25.75c0.15,0.19,0.29,0.54,0.05,0.75c-1.15,1.44-3.05,0.99-4.74,1.15c-5.29,0.55-10.69,0.9-16.06,1.34
		c-32.58,3.05-64.27,8.34-92.05,22.95c-5.8,3.7-14.02,8.74-13.87,16.67c0.74,2.49,3.19,5.14,5.93,5.33
		c10.33,1.95,19.21-2.54,28-5.73c7.72-3.34,14.91-7.98,22.05-12.72c0.9,0.44,2.63-0.04,2.73,1.4
		C60.12,67.96,52.04,81.12,45.45,94.75c-1.44,1.3-2.79,2.84-4.68,3.14c-0.56-0.3-0.2-1-0.3-1.5c4.03-9.53,9.33-18.51,15.11-27.29
		c-5.55,1.3-10.38,4.79-16.01,6.03c-8.14,2.8-19.61,5.34-27.24-0.44C9.48,72.05,7.54,68.5,8.73,64.6
		c3.83-10.11,14.67-16.8,23.6-21.4c20.2-9.82,43.05-13.17,66.25-15.65c10.82-0.95,21.9-1.66,32.93-1.7
		C134.25,25.65,137.49,25.79,140.44,25.75z"/>
	<g>
		<polygon class="st0" points="137.95,1.55 137.95,1.85 138.25,1.85 		"/>
		<polygon class="st0" points="138.25,95.8 137.95,95.8 137.95,96.1 		"/>
		<path class="st0" d="M137.95,28.32v49.22c0.22,0,0.41,0,0.59,0V28.32C138.34,28.32,138.15,28.32,137.95,28.32z"/>
		<path class="st0" d="M138.54,1.24h-0.29H64.17c0,0.2,0,0.4,0,0.61h73.78v-0.3l0.3,0.3h-0.3v22.86l0.59,0V1.55V1.24z"/>
		<path class="st0" d="M137.95,95.8h0.3l-0.3,0.3V95.8H46.7c0,0.19,0,0.4,0,0.59h91.56h0.29V96.1v-15.8
			c-0.21,0.01-0.41,0.11-0.59,0.22V95.8z"/>
		<path class="st0" d="M0.29,1.24H0v0.3V96.1v0.29h0.29h37.92c0-0.19,0-0.4,0-0.59H0.6v0.3l-0.31-0.3H0.6V1.85H0.29l0.31-0.3v0.3
			h51.08c0-0.19,0-0.41,0-0.61H0.29z"/>
		<polygon class="st0" points="0.6,96.1 0.6,95.8 0.29,95.8 		"/>
		<polygon class="st0" points="0.29,1.85 0.6,1.85 0.6,1.55 		"/>
	</g>
	<g>
		<path class="st0" d="M69.4,86.21c-0.29,0.01-0.55,0.03-0.78,0.06c-0.23,0.03-0.44,0.08-0.62,0.14c-0.12,0.04-0.31,0.12-0.57,0.23
			c-1.3,0.52-2.49,0.78-3.57,0.78c-0.87,0-1.68-0.11-2.42-0.33c-0.74-0.22-1.39-0.55-1.96-0.98c-0.55-0.42-0.96-0.89-1.23-1.41
			c-0.27-0.52-0.4-1.1-0.4-1.75c0-1.49,0.59-2.71,1.78-3.65s2.73-1.41,4.62-1.41c1.03,0,2.06,0.18,3.11,0.53
			c0.29,0.1,0.47,0.15,0.55,0.15c0.09,0,0.19-0.07,0.27-0.22c0.09-0.14,0.16-0.22,0.23-0.22c0.07,0,0.12,0.02,0.15,0.05
			c0.03,0.04,0.04,0.1,0.04,0.21v0.15l-0.11,2c-0.01,0.06-0.02,0.1-0.05,0.12c-0.03,0.03-0.07,0.04-0.12,0.04
			c-0.09,0-0.17-0.1-0.23-0.29c-0.05-0.14-0.09-0.26-0.13-0.35c-0.31-0.64-0.74-1.12-1.3-1.43c-0.56-0.31-1.27-0.46-2.14-0.46
			c-1.45,0-2.56,0.39-3.32,1.17c-0.76,0.78-1.13,1.92-1.13,3.42c0,1.36,0.37,2.42,1.1,3.18c0.74,0.76,1.75,1.14,3.06,1.14
			c1.08,0,1.88-0.18,2.39-0.54c0.51-0.36,0.76-0.93,0.76-1.7c0-0.27-0.06-0.5-0.17-0.68c-0.11-0.18-0.27-0.3-0.47-0.36
			c-0.1-0.02-0.2-0.04-0.31-0.06c-0.1-0.02-0.2-0.03-0.29-0.03c-0.02,0-0.04-0.01-0.07-0.01c-0.23-0.03-0.35-0.09-0.35-0.17
			c0-0.04,0.04-0.08,0.11-0.11c0.08-0.03,0.18-0.04,0.3-0.04c0.04,0,0.15,0.01,0.32,0.02c0.63,0.04,1.22,0.07,1.77,0.07
			c0.6,0,1.22-0.02,1.85-0.07c0.14-0.01,0.22-0.02,0.25-0.02c0.1,0,0.18,0.01,0.25,0.04c0.06,0.03,0.1,0.06,0.1,0.1
			c0,0.07-0.09,0.12-0.28,0.17c-0.03,0.01-0.05,0.02-0.06,0.02c-0.1,0.01-0.2,0.03-0.29,0.05c-0.1,0.02-0.19,0.06-0.28,0.1
			c-0.17,0.08-0.29,0.19-0.35,0.32c-0.06,0.13-0.1,0.4-0.1,0.81v0.15c0,0.19,0.01,0.38,0.02,0.57
			C69.35,85.88,69.37,86.06,69.4,86.21z"/>
		<path class="st0" d="M73.99,83.89l-0.79,1.5c-0.08,0.14-0.13,0.28-0.17,0.42c-0.04,0.13-0.06,0.25-0.06,0.36
			c0,0.17,0.05,0.31,0.14,0.42c0.09,0.11,0.24,0.2,0.45,0.26c0.12,0.03,0.21,0.05,0.27,0.06c0.06,0.01,0.11,0.02,0.15,0.02
			c0.15,0.02,0.25,0.04,0.3,0.07c0.05,0.03,0.08,0.07,0.08,0.12c0,0.04-0.03,0.06-0.09,0.09c-0.06,0.02-0.14,0.03-0.26,0.03
			c-0.03,0-0.23-0.01-0.6-0.04c-0.38-0.03-0.73-0.04-1.07-0.04c-0.26,0-0.56,0.01-0.9,0.03c-0.34,0.02-0.55,0.03-0.62,0.03
			c-0.15,0-0.26-0.01-0.33-0.04c-0.08-0.02-0.12-0.06-0.12-0.12c0-0.04,0.03-0.07,0.08-0.09c0.05-0.02,0.15-0.05,0.29-0.06
			c0.16-0.02,0.29-0.05,0.4-0.08c0.11-0.03,0.21-0.06,0.31-0.1c0.21-0.07,0.4-0.22,0.59-0.42c0.19-0.21,0.4-0.53,0.64-0.96
			l4.04-7.22c0.05-0.09,0.1-0.16,0.15-0.2c0.05-0.04,0.11-0.06,0.17-0.06c0.07,0,0.12,0.02,0.18,0.06c0.05,0.04,0.11,0.12,0.17,0.22
			l4,7.57c0.18,0.33,0.35,0.58,0.52,0.74c0.17,0.17,0.36,0.28,0.57,0.35c0.08,0.03,0.16,0.05,0.26,0.07
			c0.1,0.02,0.21,0.03,0.33,0.04c0.17,0.02,0.28,0.04,0.34,0.07c0.05,0.03,0.08,0.06,0.08,0.11c0,0.04-0.03,0.07-0.1,0.1
			c-0.06,0.02-0.15,0.04-0.27,0.04c-0.14,0-0.47-0.01-0.98-0.03s-0.95-0.03-1.32-0.03c-0.24,0-0.6,0.01-1.08,0.04
			c-0.49,0.03-0.85,0.04-1.1,0.04c-0.15,0-0.27-0.01-0.35-0.04c-0.08-0.02-0.12-0.06-0.13-0.11c0-0.04,0.04-0.07,0.1-0.1
			c0.07-0.03,0.21-0.06,0.43-0.09c0.35-0.03,0.6-0.08,0.75-0.15c0.16-0.07,0.24-0.18,0.24-0.32c0-0.1-0.02-0.23-0.07-0.38
			c-0.05-0.16-0.11-0.32-0.2-0.48l-0.84-1.66H73.99z M74.2,83.5h4.2l-2.02-3.92L74.2,83.5z"/>
		<path class="st0" d="M85.19,79.58c0-0.34-0.04-0.58-0.13-0.73c-0.09-0.15-0.24-0.26-0.46-0.34c-0.09-0.03-0.19-0.05-0.3-0.07
			c-0.11-0.02-0.24-0.03-0.39-0.04c-0.01,0-0.03,0-0.05-0.01c-0.29-0.03-0.43-0.07-0.43-0.14c0-0.04,0.03-0.07,0.09-0.1
			c0.06-0.02,0.15-0.04,0.26-0.04c0.04,0,0.13,0,0.29,0.01c0.71,0.03,1.39,0.05,2.06,0.05c0.73,0,1.45-0.02,2.17-0.05
			c0.12,0,0.2-0.01,0.22-0.01c0.1,0,0.18,0.01,0.23,0.03c0.05,0.02,0.08,0.05,0.08,0.09c0,0.07-0.12,0.12-0.36,0.15
			c-0.03,0-0.05,0.01-0.07,0.01c-0.08,0-0.16,0.01-0.26,0.02c-0.09,0.01-0.2,0.03-0.33,0.05c-0.27,0.06-0.46,0.17-0.57,0.33
			c-0.11,0.16-0.17,0.42-0.17,0.79v4.77c0,0.9,0.27,1.55,0.8,1.98c0.54,0.42,1.37,0.63,2.51,0.63c1.34,0,2.32-0.25,2.95-0.76
			c0.63-0.5,0.95-1.29,0.95-2.37v-4.25c0-0.34-0.04-0.58-0.13-0.73c-0.09-0.15-0.24-0.26-0.46-0.34c-0.09-0.03-0.19-0.05-0.3-0.07
			c-0.11-0.02-0.24-0.03-0.39-0.04c-0.01,0-0.03,0-0.05-0.01c-0.29-0.03-0.43-0.08-0.43-0.14c0-0.04,0.03-0.07,0.09-0.1
			s0.14-0.04,0.25-0.04c0.09,0,0.33,0.01,0.72,0.03c0.39,0.02,0.74,0.03,1.04,0.03c0.28,0,0.6-0.01,0.96-0.03
			c0.36-0.02,0.57-0.03,0.64-0.03c0.1,0,0.18,0.01,0.23,0.03c0.06,0.02,0.08,0.05,0.08,0.09c0,0.07-0.12,0.12-0.36,0.15
			c-0.03,0-0.05,0.01-0.07,0.01c-0.08,0-0.17,0.01-0.27,0.02c-0.1,0.01-0.21,0.03-0.32,0.05c-0.27,0.05-0.46,0.16-0.57,0.32
			c-0.11,0.16-0.16,0.42-0.16,0.8v3.91c0,1.43-0.38,2.45-1.14,3.05c-0.76,0.6-2.04,0.9-3.83,0.9c-1.55,0-2.71-0.24-3.47-0.73
			c-0.77-0.48-1.15-1.21-1.15-2.18V79.58z"/>
		<path class="st0" d="M109.22,86.87c0,0.05-0.02,0.08-0.05,0.11c-0.03,0.02-0.08,0.04-0.15,0.04c-0.09,0-0.17-0.08-0.24-0.25
			c-0.07-0.17-0.19-0.25-0.36-0.25c-0.12,0-0.32,0.06-0.58,0.19c-0.11,0.06-0.2,0.1-0.27,0.12c-0.48,0.2-0.99,0.35-1.52,0.45
			c-0.53,0.1-1.08,0.16-1.66,0.16c-0.83,0-1.62-0.11-2.38-0.32c-0.76-0.21-1.41-0.5-1.95-0.88c-0.6-0.42-1.06-0.91-1.37-1.48
			c-0.31-0.57-0.46-1.2-0.46-1.89c0-0.54,0.09-1.05,0.27-1.53c0.18-0.48,0.45-0.93,0.81-1.36c0.58-0.67,1.33-1.18,2.25-1.53
			c0.92-0.35,1.95-0.53,3.1-0.53c1.04,0,2.08,0.19,3.12,0.58c0.22,0.08,0.36,0.13,0.42,0.13c0.11,0,0.2-0.09,0.29-0.26
			c0.09-0.17,0.16-0.26,0.24-0.26c0.07,0,0.12,0.02,0.15,0.07c0.03,0.04,0.05,0.12,0.07,0.23l0.09,2c0,0.05,0.01,0.11,0.02,0.16
			c0,0.01,0,0.02,0,0.02c0,0.06-0.02,0.1-0.05,0.14c-0.04,0.03-0.08,0.05-0.14,0.05c-0.09,0-0.17-0.09-0.23-0.26
			c-0.05-0.17-0.11-0.31-0.18-0.42c-0.34-0.65-0.81-1.12-1.42-1.44c-0.6-0.31-1.35-0.47-2.25-0.47c-1.33,0-2.38,0.41-3.16,1.23
			c-0.78,0.82-1.17,1.95-1.17,3.37c0,1.32,0.4,2.37,1.19,3.14c0.79,0.77,1.86,1.16,3.21,1.16c0.79,0,1.5-0.16,2.11-0.47
			c0.61-0.31,1.08-0.75,1.4-1.32c0.14-0.25,0.27-0.52,0.4-0.82c0.12-0.3,0.23-0.45,0.31-0.45c0.04,0,0.08,0.01,0.1,0.04
			c0.03,0.03,0.04,0.06,0.04,0.09V86.87z"/>
		<path class="st0" d="M113.06,79.58c0-0.35-0.04-0.6-0.12-0.74c-0.08-0.15-0.23-0.26-0.45-0.33c-0.09-0.03-0.19-0.05-0.3-0.07
			c-0.11-0.02-0.24-0.03-0.39-0.04c-0.01,0-0.03,0-0.05-0.01c-0.29-0.03-0.43-0.08-0.43-0.14c0-0.04,0.03-0.07,0.08-0.1
			c0.06-0.02,0.14-0.04,0.24-0.04c0.04,0,0.13,0,0.29,0.01c0.72,0.03,1.41,0.05,2.08,0.05c0.72,0,1.44-0.02,2.16-0.05
			c0.12,0,0.19-0.01,0.21-0.01c0.11,0,0.19,0.01,0.24,0.03c0.05,0.02,0.08,0.05,0.08,0.09c0,0.07-0.12,0.12-0.36,0.15
			c-0.03,0-0.05,0.01-0.07,0.01c-0.08,0-0.16,0.01-0.26,0.02c-0.09,0.01-0.2,0.03-0.33,0.05c-0.27,0.06-0.46,0.17-0.57,0.33
			c-0.11,0.16-0.17,0.42-0.17,0.79v2.72h6.54v-2.72c0-0.35-0.04-0.6-0.13-0.74c-0.08-0.15-0.24-0.26-0.45-0.33
			c-0.08-0.03-0.17-0.05-0.28-0.07s-0.24-0.03-0.39-0.04c-0.2-0.02-0.33-0.04-0.4-0.07c-0.07-0.02-0.1-0.05-0.1-0.1
			c0-0.04,0.03-0.06,0.08-0.09c0.06-0.02,0.14-0.03,0.24-0.03c0.02,0,0.09,0,0.21,0.01c0.71,0.03,1.43,0.05,2.15,0.05
			c0.67,0,1.36-0.02,2.08-0.05c0.16,0,0.25-0.01,0.29-0.01c0.11,0,0.19,0.01,0.24,0.04c0.06,0.02,0.08,0.06,0.08,0.1
			c0,0.07-0.14,0.12-0.43,0.14c-0.02,0-0.04,0.01-0.05,0.01c-0.15,0.01-0.28,0.02-0.39,0.04c-0.11,0.02-0.21,0.04-0.3,0.07
			c-0.21,0.08-0.36,0.19-0.45,0.33c-0.09,0.15-0.13,0.39-0.13,0.74v6.11c0,0.37,0.04,0.62,0.12,0.77c0.08,0.14,0.24,0.25,0.46,0.33
			c0.08,0.03,0.18,0.06,0.29,0.08c0.11,0.02,0.24,0.03,0.39,0.04c0.01,0,0.03,0,0.04,0.01c0.29,0.03,0.44,0.08,0.44,0.17
			c0,0.05-0.03,0.09-0.08,0.11c-0.06,0.02-0.14,0.04-0.24,0.04c-0.02,0-0.09,0-0.2-0.01c-0.71-0.04-1.43-0.06-2.17-0.06
			c-0.73,0-1.45,0.02-2.15,0.06c-0.12,0-0.19,0.01-0.21,0.01c-0.11,0-0.19-0.01-0.24-0.04c-0.06-0.03-0.08-0.06-0.08-0.11
			c0-0.08,0.15-0.14,0.44-0.17c0.02,0,0.04-0.01,0.04-0.01c0.15-0.01,0.28-0.02,0.39-0.04c0.11-0.02,0.21-0.05,0.31-0.08
			c0.21-0.08,0.36-0.18,0.45-0.33c0.09-0.14,0.13-0.4,0.13-0.77v-2.98h-6.54v2.98c0,0.35,0.04,0.6,0.13,0.75
			c0.09,0.15,0.24,0.26,0.46,0.34c0.11,0.04,0.22,0.07,0.34,0.09c0.12,0.02,0.24,0.03,0.36,0.03c0.01,0,0.02,0,0.04,0
			c0.29,0.03,0.43,0.09,0.43,0.18c0,0.04-0.03,0.08-0.08,0.11c-0.06,0.03-0.14,0.04-0.24,0.04c-0.02,0-0.1,0-0.21-0.01
			c-0.71-0.04-1.42-0.06-2.16-0.06c-0.74,0-1.46,0.02-2.17,0.06c-0.11,0-0.18,0.01-0.2,0.01c-0.11,0-0.19-0.01-0.24-0.04
			c-0.06-0.02-0.08-0.06-0.08-0.11c0-0.09,0.15-0.14,0.44-0.17c0.02,0,0.03-0.01,0.04-0.01c0.15-0.01,0.28-0.02,0.39-0.04
			c0.11-0.02,0.21-0.04,0.29-0.08c0.22-0.08,0.38-0.19,0.46-0.33c0.08-0.14,0.12-0.4,0.12-0.77V79.58z"/>
		<path class="st0" d="M133.47,85.69c0,0.37,0.04,0.62,0.13,0.77c0.08,0.14,0.23,0.25,0.45,0.33c0.09,0.04,0.2,0.06,0.3,0.08
			c0.11,0.02,0.24,0.03,0.39,0.04c0,0,0.02,0,0.04,0.01c0.29,0.03,0.44,0.09,0.44,0.17c0,0.04-0.03,0.08-0.08,0.11
			c-0.06,0.03-0.14,0.04-0.24,0.04c-0.02,0-0.09,0-0.21-0.01c-0.71-0.04-1.43-0.06-2.16-0.06c-0.74,0-1.46,0.02-2.16,0.06
			c-0.12,0-0.19,0.01-0.21,0.01c-0.11,0-0.2-0.01-0.26-0.04c-0.06-0.03-0.09-0.06-0.09-0.11c0-0.09,0.15-0.14,0.44-0.17
			c0.02,0,0.03-0.01,0.04-0.01c0.15-0.01,0.29-0.02,0.4-0.04c0.11-0.02,0.21-0.04,0.29-0.08c0.22-0.08,0.38-0.19,0.46-0.33
			c0.08-0.14,0.12-0.4,0.12-0.77v-2.07l-3.13-4.25c-0.02-0.03-0.04-0.06-0.08-0.11c-0.36-0.49-0.71-0.76-1.04-0.8
			c-0.05,0-0.12-0.01-0.23-0.03c-0.3-0.03-0.45-0.1-0.46-0.19c0-0.05,0.03-0.09,0.1-0.11c0.06-0.02,0.17-0.03,0.3-0.03
			c0.07,0,0.12,0,0.17,0c0.05,0,0.1,0.01,0.15,0.01c0.02,0,0.06,0,0.12,0.01c0.46,0.02,0.88,0.03,1.25,0.03
			c0.33,0,0.72-0.01,1.15-0.03c0.43-0.02,0.67-0.03,0.71-0.03c0.11,0,0.24,0,0.39-0.01c0.16,0,0.26-0.01,0.31-0.01
			c0.16,0,0.28,0.01,0.34,0.03c0.06,0.02,0.09,0.06,0.09,0.11c0,0.08-0.11,0.13-0.32,0.13c-0.13,0-0.24,0.01-0.32,0.02
			c-0.25,0.04-0.44,0.1-0.57,0.18c-0.13,0.08-0.19,0.2-0.19,0.33c0,0.08,0.03,0.2,0.11,0.36c0.07,0.16,0.17,0.32,0.29,0.5l2.43,3.51
			c0.23-0.29,0.55-0.7,0.97-1.21c1.38-1.69,2.07-2.71,2.07-3.06c0-0.15-0.04-0.27-0.12-0.36c-0.08-0.08-0.21-0.14-0.39-0.17
			c-0.08-0.01-0.18-0.03-0.32-0.05c-0.28-0.04-0.42-0.1-0.42-0.17c0-0.04,0.03-0.08,0.09-0.1c0.06-0.02,0.15-0.03,0.27-0.03
			c0.08,0,0.14,0,0.2,0c0.06,0,0.11,0,0.17,0.01c0.18,0.01,0.38,0.02,0.6,0.02c0.21,0,0.44,0.01,0.67,0.01
			c0.46,0,0.92-0.01,1.37-0.04h0.02c0.02,0,0.04-0.01,0.07-0.01c0.02,0,0.04,0,0.07,0c0.06,0,0.12,0.01,0.16,0.03
			c0.04,0.02,0.07,0.05,0.07,0.08c0,0.06-0.08,0.11-0.25,0.16c-0.03,0.01-0.05,0.02-0.06,0.02c-0.22,0.02-0.43,0.08-0.61,0.16
			c-0.19,0.08-0.36,0.2-0.53,0.36c-0.09,0.09-0.54,0.66-1.35,1.69c-0.8,1.03-1.62,2.01-2.43,2.94V85.69z"/>
	</g>
	<g>
		<path class="st1" d="M99.72,67.64c-3.66,2.29-7.81,4.24-11.99,5.29c-0.28,0.07-2.13,0.52-2.31,0.15c-0.21-0.5,0.33-1.31,0.57-1.71
			c1.04-1.77,2.56-3.29,3.87-4.86c0.93-1.1,4.58-4.59,2.68-6.09c-0.77-0.61-1.78-0.51-2.69-0.42c-3,0.31-5.93,1.85-8.48,3.35
			c-0.04,0.02,0.5,0.62,0.69,0.5c2.75-1.62,5.72-3.05,8.92-3.39c2.55-0.27,0.83,2.14,0.07,3.21c-1.18,1.67-2.58,3.16-3.88,4.72
			c-0.8,0.97-2.38,2.47-2.46,3.84c-0.23,3.78,10.19-1.16,14.22-3.28c-0.69,1.28-1.23,2.63-1.73,4c-0.05,0.18,0.68,0.55,0.69,0.48
			c0.66-1.83,1.42-3.66,2.5-5.28C100.47,68.03,99.84,67.56,99.72,67.64z"/>
		<path class="st1" d="M107.88,63.65c0.08-0.06-0.55-0.62-0.68-0.5c-2.63,2.46-4.79,5.46-6.49,8.62c-0.08,0.14,0.62,0.59,0.68,0.49
			C103.11,69.09,105.25,66.11,107.88,63.65z"/>
		<path class="st1" d="M114.45,71.19c-1.07,0.61-2.25,0.97-3.47,1.13c-0.56,0.08-0.85-0.03-0.96-0.24c0.65-0.33,1.27-0.69,1.83-1.04
			c0.84-0.52,1.8-1.5,0.65-2.2c-1.24-0.75-2.27,0.53-2.89,1.51c-0.29,0.46-0.4,0.87-0.34,1.22c-0.55,0.24-1.1,0.46-1.65,0.67
			c-0.9,0.34-3.3,1.19-2.76-0.54c0.3-0.98,1-1.88,1.6-2.71c1.31-1.85,2.83-3.63,4.48-5.21c0.07-0.06-0.55-0.62-0.68-0.48
			c-1.43,1.35-2.7,2.87-3.92,4.42c-0.84,1.08-2.5,2.9-2.29,4.39c0.08,0.61,1.24,1.18,1.77,1.17c1.24,0,2.58-0.44,3.82-1.02
			c0.15,0.14,0.33,0.27,0.55,0.39c1.4,0.77,3.68-0.25,4.95-0.97C115.16,71.68,114.65,71.08,114.45,71.19z M111.01,69.91
			c0.12-0.14,1.57-1.29,1.29-0.43c-0.14,0.46-0.79,0.83-1.15,1.08c-0.32,0.22-0.66,0.42-1,0.61
			C110.39,70.68,110.77,70.18,111.01,69.91z"/>
		<path class="st1" d="M101.34,66.21c0.12-0.31,0.28-0.59,0.43-0.88c0.08-0.14-0.63-0.59-0.67-0.5c-0.17,0.28-0.32,0.57-0.44,0.87
			C100.58,65.87,101.29,66.29,101.34,66.21z"/>
		<path class="st1" d="M132.55,71.72c-1.95,1.19-4.62,1.47-5.19,0.8c0-0.01,0-0.01-0.01-0.03c1.59-0.2,2.54-0.94,2.75-1.58
			c0.12-0.3,0.06-0.59-0.14-0.77c-0.7-0.68-1.84-0.19-2.61,0.52c-0.59,0.57-0.91,1.17-0.89,1.7c-1.17,0.28-1.73,0.17-1.85-0.04
			c-0.48-0.85,2.08-4.17,3.64-5.65l-0.57-0.61c-0.04,0.03-2.24,2.22-3.34,4.2c-0.07-0.04-0.13-0.08-0.17-0.1
			c-1.24-0.47-2.62-0.28-3.84,0.17c-0.81,0.3-1.92,0.97-1.39,1.94c0.91,1.68,3.27,0.7,4.79-0.38c-0.04,0.32,0,0.6,0.14,0.84
			c0.57,1.01,2.27,0.59,2.95,0.42c1.11,1.06,4.17,0.52,6.18-0.71L132.55,71.72z M127.93,71.27c0.5-0.47,1.05-0.69,1.34-0.58
			c-0.14,0.24-0.62,0.68-1.61,0.89C127.72,71.48,127.81,71.37,127.93,71.27z M122.03,71.99c-0.4,0.19-2.85,1.23-2.52-0.01
			c0.19-0.72,1.3-1.11,1.9-1.3c0.83-0.26,1.81-0.37,2.69-0.19C123.51,71.12,122.78,71.6,122.03,71.99z"/>
	</g>
</g>
</svg>
