<?xml version="1.0" encoding="utf-8"?>
<!-- Generator: Adobe Illustrator 26.3.1, SVG Export Plug-In . SVG Version: 6.00 Build 0)  -->
<svg version="1.1" id="Calque_1" xmlns="http://www.w3.org/2000/svg" xmlns:xlink="http://www.w3.org/1999/xlink" x="0px" y="0px"
	 viewBox="0 0 312.07 78.16" style="enable-background:new 0 0 312.07 78.16;" xml:space="preserve">
<style type="text/css">
	.st0{fill:#74AE27;}
	.st1{fill:#F9B000;}
	.st2{fill:url(#SVGID_1_);}
</style>
<g>
	<path class="st0" d="M27.97,32.65h-7.43c-0.42-3.69-2.47-6-6.27-6c-2.9,0-5.11,1.37-5.11,4.32c0,3.06,1.95,4.58,7.74,5.95
		c8.01,1.84,11.59,5.53,11.59,11.38c0,6.85-6.27,10.75-13.43,10.75C6.37,59.04,0.68,55.2,0,47.56h7.43c0.79,4,3.85,6.06,7.53,6.06
		c3.32,0,5.95-1.79,5.95-4.58c0-3.06-1.9-4.85-7.27-6.11C6.21,41.14,1.53,38.55,1.53,31.87c0-6.69,6.06-10.64,13.01-10.64
		C23.23,21.22,27.18,26.18,27.97,32.65z"/>
	<path class="st0" d="M68.44,40.13c0,11.38-6.79,18.91-17.96,18.91c-11.22,0-17.96-7.53-17.96-18.91c0-11.43,6.74-18.91,17.96-18.91
		C61.64,21.22,68.44,28.7,68.44,40.13z M60.8,40.13c0-8.53-3.9-13.48-10.32-13.48C44,26.65,40.1,31.6,40.1,40.13
		c0,8.48,3.9,13.48,10.38,13.48C56.9,53.62,60.8,48.61,60.8,40.13z"/>
	<path class="st0" d="M106.12,33.76l0.05,0.53h-7.27l-0.11-0.53c-0.9-4.48-3.63-7.11-8.48-7.11c-5.85,0-9.8,5-9.8,13.27
		c0,9.06,4.16,13.69,9.69,13.69c4.74,0,7.48-2.84,8.43-7.37l0.11-0.53h7.22l-0.05,0.53c-0.79,7.74-6.69,12.8-16.01,12.8
		c-10.11,0-17.07-7.11-17.07-18.7c0-11.9,7.53-19.12,17.59-19.12C100.28,21.22,105.38,26.6,106.12,33.76z"/>
	<path class="st0" d="M146.59,40.13c0,11.38-6.79,18.91-17.96,18.91c-11.22,0-17.96-7.53-17.96-18.91
		c0-11.43,6.74-18.91,17.96-18.91C139.8,21.22,146.59,28.7,146.59,40.13z M138.96,40.13c0-8.53-3.9-13.48-10.32-13.48
		c-6.48,0-10.38,4.95-10.38,13.48c0,8.48,3.9,13.48,10.38,13.48C135.06,53.62,138.96,48.61,138.96,40.13z"/>
	<path class="st0" d="M185.12,39.66c0,11.11-6.64,17.43-15.06,18.44c-1.84,0.21-2.68,0.21-4.63,0.21h-12.43V21.96h12.54
		c1.95,0,2.79,0,4.63,0.21C178.59,23.17,185.12,28.55,185.12,39.66z M177.43,39.77c0-7.16-3.48-11.22-8.85-11.9
		c-1.21-0.16-2.27-0.21-3.9-0.21h-4.42v24.91h4.32c1.58,0,2.68,0,3.85-0.16C173.85,51.72,177.43,47.19,177.43,39.77z"/>
	<path class="st0" d="M191.52,58.31V21.96h7.27v36.34H191.52z"/>
	<path class="st0" d="M234.56,33.29c0,6.69-4.53,10.43-9.8,11.06c-1.79,0.21-3.16,0.26-5.27,0.26h-5.32v13.69h-7.27V21.96h12.59
		c2.11,0,3.48,0.05,5.27,0.26C230.29,22.86,234.56,26.6,234.56,33.29z M226.92,33.29c0-3.42-1.79-5.06-4.32-5.43
		c-0.79-0.11-1.9-0.16-3.21-0.16h-5.21v11.17h5.21c1.32,0,2.42-0.05,3.21-0.16C225.13,38.34,226.92,36.71,226.92,33.29z"/>
</g>
<g>
	<path class="st1" d="M308.71,26.9c0.72,5.9-5.75,34.39-25.26,43.28c14.47-8.03,33.95-45.7,14.47-63.79c-3.08-2-6.2-2.93-8.82-3.41
		c28.38,9.87,4.58,78.15-42.33,69.01c6.07,3.34,13.02,5.24,20.44,5.24C295.49,77.24,313.48,51.08,308.71,26.9z"/>
	<linearGradient id="SVGID_1_" gradientUnits="userSpaceOnUse" x1="273.8343" y1="24.8259" x2="247.2008" y2="68.459">
		<stop  offset="0" style="stop-color:#A5C83F"/>
		<stop  offset="0.1592" style="stop-color:#97C342"/>
		<stop  offset="0.4547" style="stop-color:#6CB649"/>
		<stop  offset="0.5566" style="stop-color:#58B14B"/>
		<stop  offset="0.6402" style="stop-color:#51AB4A"/>
		<stop  offset="0.7581" style="stop-color:#409946"/>
		<stop  offset="0.8955" style="stop-color:#247F40"/>
		<stop  offset="1" style="stop-color:#056939"/>
	</linearGradient>
	<path class="st2" d="M241.52,48.67c0.51,2.79,2.68,11.55,1.87,15.04c-0.29,2.3-1.29,4.38-4.74,2.4c8.15,6.68,7.86-8.93,18.22-23.07
		c0.35-0.47-0.46-12.05-0.09-12.52c0.21-0.27,1.6,10.57,1.82,10.31c1.79-2.16,3.87-4.26,6.29-6.2c0.25-0.2,1.41-8.24,1.67-8.43
		c0.22-0.16-0.48,7.52-0.26,7.35c2.69-1.98,8.24-4.87,11.83-6.36c-1.8,1.05-6.99,4.2-9.36,6.24l8.62-0.58c0,0-9.97,1.75-10.25,2.01
		c-1.1,1.03-4.95,5.22-8.77,11.35c-0.24,0.38,12.31-1.55,12.08-1.16c-0.25,0.42-13.28,3.16-13.53,3.6
		c-2.48,4.35-4.79,9.48-6.14,15.04c39.94,10.01,40.18-43.28,40.35-56.2C280.57,22.87,235.71,17.29,241.52,48.67z"/>
</g>
</svg>
