<?xml version="1.0" encoding="utf-8"?>
<!-- Generator: Adobe Illustrator 26.3.1, SVG Export Plug-In . SVG Version: 6.00 Build 0)  -->
<svg version="1.1" id="logo-grandeur-nature" xmlns="http://www.w3.org/2000/svg" xmlns:xlink="http://www.w3.org/1999/xlink"
	 x="0px" y="0px" viewBox="0 0 566.41 343.34" style="enable-background:new 0 0 566.41 343.34;" xml:space="preserve">
<style type="text/css">
	.st0{fill:#1C1D1C;}
	.st1{fill:#E6332A;}
	.st2{fill:#D60A52;}
	.st3{fill:#683B14;}
	.st4{fill:#026634;}
	.st5{fill:#2B307F;}
	.st6{fill:#DEDC03;}
	.st7{fill:#9B4593;}
	.st8{fill:#00A199;}
	.st9{fill:#A41A5C;}
	.st10{fill:#94C020;}
	.st11{fill:#422918;}
	.st12{fill:#1A9CD8;}
	.st13{fill:#F29103;}
	.st14{fill:#652580;}
	.st15{fill:#645043;}
	.st16{fill:#FFCC03;}
	.st17{fill:#E8501D;}
	.st18{fill:#7B6C5A;}
	.st19{fill:#FCEA1B;}
	.st20{fill:#C99E65;}
	.st21{fill:#925F36;}
	.st22{fill:#020203;}
</style>
<g id="logo-tree-person">
	<path class="st0" d="M241.75,151.37c-1,0.61-1.99,1.25-2.97,1.9c-0.98,0.65-1.96,1.3-2.92,1.97c-1.94,1.33-3.86,2.7-5.76,4.1
		c-3.8,2.8-7.53,5.71-11.18,8.74c-7.3,6.06-14.32,12.56-20.92,19.59c-3.3,3.52-6.49,7.17-9.56,10.97c-3.06,3.8-5.99,7.76-8.75,11.88
		c-1.09,1.63-2.15,3.29-3.18,4.97c-1.23-1.97-2.5-3.9-3.81-5.79c-2.82-4.07-5.8-7.97-8.92-11.71c-3.12-3.74-6.36-7.34-9.71-10.79
		c-6.7-6.91-13.81-13.3-21.2-19.23c-3.7-2.96-7.47-5.82-11.31-8.55c-1.92-1.37-3.86-2.7-5.82-4.01c-0.98-0.65-1.96-1.29-2.95-1.92
		c-0.99-0.63-1.99-1.25-2.99-1.85c0.87,0.78,1.72,1.58,2.57,2.39c0.84,0.81,1.68,1.63,2.51,2.45c1.65,1.65,3.28,3.32,4.88,5.02
		c3.19,3.39,6.28,6.87,9.26,10.42c5.96,7.1,11.48,14.51,16.43,22.17c4.94,7.67,9.3,15.61,12.81,23.73c1.75,4.06,3.29,8.17,4.57,12.3
		c1.01,3.26,1.85,6.53,2.52,9.79c-0.01,0.2-0.02,0.4-0.02,0.6v0.01l-12.21,97.87c0,0,7.2,4.95,21.54,4.95
		c0.81,0,1.63-0.02,2.49-0.05c16-0.62,22.43-4.9,22.43-4.9l-11.2-97.34c0.58-3.32,1.36-6.66,2.3-9.99c1.17-4.15,2.6-8.28,4.26-12.38
		c3.3-8.2,7.47-16.23,12.21-24.01c4.76-7.78,10.1-15.31,15.88-22.56c2.89-3.62,5.9-7.17,9.01-10.64c1.56-1.74,3.14-3.45,4.76-5.14
		c0.81-0.84,1.62-1.68,2.45-2.51C240.07,153,240.9,152.18,241.75,151.37 M187.98,243.48L187.98,243.48L187.98,243.48z"/>
	<path class="st0" d="M176.46,175.55c-7.37,0-13.35,5.98-13.35,13.35c0,7.37,5.98,13.35,13.35,13.35c7.37,0,13.35-5.98,13.35-13.35
		C189.81,181.52,183.83,175.55,176.46,175.55"/>
</g>
<g id="logo-tree-leaf">
	<path class="st1" d="M176.71,106.68c1.29,1.28,2.31,2.56,3.24,3.84c0.92,1.28,1.74,2.56,2.46,3.84c1.45,2.56,2.58,5.11,3.45,7.67
		c1.74,5.12,2.49,10.23,2.51,15.34c0.01,5.11-0.74,10.23-2.47,15.35c-0.87,2.56-2,5.11-3.45,7.67c-0.73,1.28-1.55,2.56-2.47,3.84
		c-0.94,1.28-1.96,2.56-3.26,3.84c-1.3-1.28-2.32-2.56-3.26-3.84c-0.93-1.28-1.74-2.56-2.47-3.84c-1.45-2.56-2.58-5.11-3.45-7.67
		c-1.73-5.12-2.48-10.23-2.47-15.35c0.02-5.11,0.77-10.23,2.51-15.34c0.87-2.56,2-5.11,3.45-7.67c0.73-1.28,1.54-2.56,2.46-3.84
		C174.4,109.24,175.41,107.96,176.71,106.68"/>
	<path class="st2" d="M176.71,36.64c1.29,1.28,2.31,2.56,3.24,3.84c0.92,1.28,1.74,2.56,2.46,3.84c1.45,2.56,2.58,5.11,3.45,7.67
		c1.74,5.11,2.49,10.23,2.51,15.34c0.01,5.11-0.74,10.23-2.47,15.34c-0.87,2.56-2,5.11-3.45,7.67c-0.73,1.28-1.55,2.56-2.47,3.84
		c-0.94,1.28-1.96,2.56-3.26,3.84c-1.3-1.28-2.32-2.56-3.26-3.84c-0.93-1.28-1.74-2.56-2.47-3.84c-1.45-2.56-2.58-5.11-3.45-7.67
		c-1.73-5.11-2.48-10.23-2.47-15.34c0.02-5.11,0.77-10.23,2.51-15.34c0.87-2.56,2-5.11,3.45-7.67c0.73-1.28,1.54-2.56,2.46-3.84
		C174.4,39.2,175.41,37.92,176.71,36.64"/>
	<path class="st3" d="M210.56,3.89c1.04,1.49,1.8,2.93,2.49,4.36c0.67,1.42,1.24,2.83,1.72,4.22c0.96,2.78,1.6,5.5,1.99,8.17
		c0.78,5.35,0.59,10.51-0.33,15.54c-0.93,5.03-2.59,9.92-5.23,14.64c-1.32,2.35-2.9,4.66-4.79,6.91c-0.95,1.12-1.99,2.23-3.13,3.32
		c-1.16,1.09-2.39,2.16-3.9,3.18c-1.05-1.49-1.82-2.94-2.51-4.36c-0.68-1.43-1.25-2.83-1.73-4.22c-0.96-2.78-1.61-5.5-2-8.17
		c-0.77-5.34-0.58-10.51,0.36-15.54c0.95-5.03,2.62-9.92,5.26-14.63c1.32-2.36,2.9-4.67,4.79-6.92c0.95-1.12,1.98-2.23,3.12-3.32
		C207.82,5.98,209.05,4.91,210.56,3.89"/>
	<path class="st4" d="M126.14,125.74c1.81,0.13,3.41,0.44,4.96,0.8c1.53,0.37,2.98,0.81,4.37,1.31c2.76,1,5.29,2.2,7.61,3.58
		c4.65,2.75,8.55,6.14,11.89,10.01c3.34,3.88,6.1,8.25,8.11,13.26c1.01,2.51,1.81,5.18,2.38,8.07c0.28,1.44,0.49,2.95,0.62,4.52
		c0.12,1.58,0.18,3.21,0.02,5.03c-1.82-0.12-3.43-0.43-4.97-0.79c-1.54-0.37-2.99-0.81-4.38-1.3c-2.77-1-5.29-2.2-7.62-3.57
		c-4.65-2.75-8.54-6.15-11.87-10.04c-3.32-3.89-6.08-8.26-8.09-13.28c-1.01-2.51-1.81-5.18-2.38-8.07c-0.28-1.44-0.5-2.94-0.63-4.51
		C126.05,129.19,125.99,127.56,126.14,125.74"/>
	<path class="st5" d="M85.01,67.33c1.81,0.13,3.41,0.44,4.96,0.8c1.53,0.37,2.98,0.81,4.37,1.31c2.76,1,5.29,2.2,7.61,3.58
		c4.65,2.75,8.55,6.14,11.89,10.02c3.33,3.88,6.1,8.25,8.11,13.26c1,2.51,1.81,5.18,2.37,8.07c0.28,1.45,0.49,2.95,0.62,4.52
		c0.12,1.58,0.18,3.21,0.02,5.03c-1.82-0.12-3.43-0.43-4.97-0.79c-1.53-0.37-2.99-0.81-4.37-1.3c-2.77-1-5.29-2.2-7.61-3.58
		c-4.64-2.76-8.54-6.15-11.87-10.04c-3.32-3.89-6.07-8.27-8.08-13.28c-1-2.51-1.81-5.18-2.38-8.07c-0.28-1.44-0.49-2.95-0.63-4.52
		C84.92,70.77,84.85,69.14,85.01,67.33"/>
	<path class="st6" d="M137.61,67.33c1.63,0.82,2.98,1.73,4.26,2.66c1.27,0.93,2.44,1.9,3.52,2.9c2.16,1.99,4.02,4.08,5.63,6.24
		c3.22,4.33,5.51,8.97,7.1,13.83c1.58,4.87,2.44,9.96,2.36,15.36c-0.04,2.7-0.33,5.48-0.93,8.36c-0.3,1.44-0.69,2.91-1.18,4.41
		c-0.5,1.5-1.08,3.03-1.92,4.65c-1.63-0.82-2.99-1.72-4.28-2.65c-1.27-0.93-2.45-1.9-3.53-2.89c-2.17-1.99-4.03-4.07-5.64-6.24
		c-3.22-4.34-5.5-8.97-7.06-13.84c-1.55-4.87-2.41-9.97-2.32-15.37c0.04-2.7,0.33-5.48,0.92-8.36c0.3-1.44,0.68-2.91,1.17-4.41
		C136.2,70.47,136.77,68.94,137.61,67.33"/>
	<path class="st7" d="M80.24,181.23c1.55-0.96,3.03-1.63,4.5-2.24c1.46-0.59,2.9-1.08,4.31-1.48c2.83-0.8,5.58-1.29,8.27-1.53
		c5.38-0.48,10.53,0.01,15.5,1.2c4.97,1.21,9.76,3.15,14.32,6.04c2.28,1.45,4.49,3.15,6.63,5.17c1.07,1.01,2.12,2.11,3.14,3.31
		c1.02,1.21,2.02,2.51,2.95,4.08c-1.55,0.96-3.04,1.65-4.5,2.26c-1.46,0.6-2.9,1.09-4.31,1.49c-2.83,0.81-5.58,1.3-8.27,1.54
		c-5.38,0.47-10.53-0.02-15.49-1.24c-4.96-1.23-9.75-3.17-14.31-6.07c-2.28-1.45-4.5-3.15-6.64-5.17c-1.07-1.01-2.12-2.1-3.14-3.3
		C82.17,184.08,81.17,182.79,80.24,181.23"/>
	<path class="st8" d="M92.37,238.25c0.49-1.75,1.13-3.25,1.79-4.69c0.67-1.42,1.4-2.75,2.17-4.01c1.54-2.5,3.24-4.73,5.06-6.72
		c3.64-3.99,7.76-7.12,12.23-9.6c4.48-2.47,9.32-4.29,14.63-5.24c2.66-0.47,5.44-0.72,8.39-0.68c1.47,0.02,2.99,0.12,4.55,0.32
		c1.57,0.21,3.18,0.48,4.93,1c-0.49,1.76-1.12,3.27-1.79,4.71c-0.67,1.43-1.4,2.76-2.17,4.02c-1.54,2.51-3.23,4.73-5.05,6.73
		c-3.64,3.99-7.76,7.11-12.24,9.57c-4.49,2.46-9.33,4.26-14.65,5.21c-2.66,0.47-5.44,0.72-8.38,0.68c-1.47-0.02-2.99-0.12-4.55-0.3
		C95.73,239.04,94.12,238.77,92.37,238.25"/>
	<path class="st4" d="M40.77,140.72c1.64-0.78,3.19-1.29,4.71-1.73c1.52-0.43,3-0.76,4.45-1c2.9-0.49,5.69-0.67,8.39-0.61
		c5.4,0.12,10.46,1.16,15.28,2.9c4.81,1.75,9.36,4.2,13.57,7.58c2.11,1.69,4.12,3.63,6.03,5.87c0.95,1.12,1.87,2.33,2.76,3.64
		c0.88,1.32,1.73,2.71,2.49,4.38c-1.65,0.79-3.2,1.3-4.72,1.75c-1.52,0.43-3,0.76-4.45,1.01c-2.9,0.49-5.69,0.68-8.39,0.62
		c-5.4-0.12-10.46-1.17-15.26-2.93c-4.8-1.76-9.35-4.22-13.56-7.61c-2.1-1.69-4.12-3.63-6.03-5.87c-0.95-1.12-1.88-2.32-2.76-3.63
		C42.38,143.77,41.52,142.38,40.77,140.72"/>
	<path class="st9" d="M71.44,107.7c1.8-0.3,3.42-0.36,5.01-0.37c1.58,0.01,3.09,0.1,4.55,0.26c2.92,0.33,5.65,0.92,8.23,1.72
		c5.16,1.6,9.74,4,13.89,6.99c4.14,3,7.84,6.61,10.96,11.02c1.56,2.21,2.96,4.62,4.18,7.3c0.61,1.34,1.16,2.76,1.65,4.26
		c0.48,1.51,0.92,3.08,1.19,4.89c-1.8,0.3-3.43,0.37-5.02,0.38c-1.58,0-3.09-0.09-4.56-0.25c-2.92-0.33-5.66-0.92-8.24-1.72
		c-5.16-1.6-9.73-4.01-13.87-7.02c-4.13-3.02-7.82-6.63-10.94-11.05c-1.56-2.21-2.96-4.62-4.18-7.3c-0.61-1.34-1.16-2.75-1.66-4.25
		C72.15,111.07,71.71,109.5,71.44,107.7"/>
	<path class="st10" d="M38.98,209.33c1.19-1.38,2.4-2.47,3.61-3.49c1.22-1,2.44-1.9,3.67-2.71c2.46-1.61,4.94-2.91,7.43-3.94
		c4.99-2.07,10.04-3.16,15.15-3.51c5.1-0.34,10.26,0.07,15.47,1.46c2.61,0.7,5.24,1.66,7.88,2.94c1.32,0.64,2.65,1.38,3.99,2.22
		c1.34,0.85,2.68,1.78,4.04,3c-1.19,1.39-2.4,2.48-3.61,3.5c-1.21,1.01-2.44,1.91-3.67,2.72c-2.46,1.62-4.93,2.92-7.43,3.95
		c-4.99,2.06-10.04,3.15-15.15,3.48c-5.1,0.32-10.26-0.1-15.47-1.49c-2.61-0.7-5.24-1.66-7.88-2.93c-1.32-0.64-2.65-1.37-3.99-2.21
		C41.68,211.46,40.34,210.54,38.98,209.33"/>
	<path class="st11" d="M227.28,125.74c-1.82,0.13-3.42,0.44-4.96,0.8c-1.53,0.37-2.98,0.81-4.37,1.31c-2.76,1-5.29,2.2-7.61,3.58
		c-4.65,2.75-8.55,6.14-11.9,10.01c-3.33,3.88-6.1,8.25-8.11,13.26c-1.01,2.51-1.81,5.18-2.38,8.07c-0.28,1.44-0.49,2.95-0.62,4.52
		c-0.12,1.58-0.18,3.21-0.02,5.03c1.82-0.12,3.43-0.43,4.97-0.79c1.54-0.37,2.99-0.81,4.37-1.3c2.77-1,5.29-2.2,7.62-3.57
		c4.65-2.75,8.54-6.15,11.87-10.04c3.32-3.89,6.08-8.26,8.09-13.28c1.01-2.51,1.81-5.18,2.38-8.07c0.28-1.44,0.49-2.94,0.63-4.51
		C227.36,129.19,227.43,127.56,227.28,125.74"/>
	<path class="st4" d="M268.41,67.33c-1.82,0.13-3.42,0.44-4.96,0.8c-1.53,0.37-2.98,0.81-4.37,1.31c-2.76,1-5.28,2.2-7.61,3.58
		c-4.65,2.75-8.55,6.14-11.89,10.02c-3.33,3.88-6.1,8.25-8.11,13.26c-1.01,2.51-1.81,5.18-2.37,8.07c-0.28,1.45-0.49,2.95-0.62,4.52
		c-0.12,1.58-0.18,3.21-0.02,5.03c1.82-0.12,3.43-0.43,4.97-0.79c1.54-0.37,2.99-0.81,4.37-1.3c2.77-1,5.29-2.2,7.62-3.58
		c4.64-2.76,8.54-6.15,11.86-10.04c3.32-3.89,6.07-8.27,8.08-13.28c1-2.51,1.81-5.18,2.38-8.07c0.28-1.44,0.49-2.95,0.63-4.52
		C268.5,70.77,268.56,69.14,268.41,67.33"/>
	<path class="st4" d="M215.8,67.33c-1.62,0.82-2.98,1.73-4.26,2.66c-1.27,0.93-2.44,1.9-3.52,2.9c-2.16,1.99-4.02,4.08-5.63,6.24
		c-3.22,4.33-5.51,8.97-7.1,13.83c-1.58,4.87-2.44,9.96-2.36,15.36c0.04,2.7,0.33,5.48,0.93,8.36c0.3,1.44,0.69,2.91,1.18,4.41
		c0.5,1.5,1.08,3.03,1.93,4.65c1.63-0.82,2.99-1.72,4.28-2.65c1.27-0.93,2.44-1.9,3.53-2.89c2.17-1.99,4.03-4.07,5.64-6.24
		c3.22-4.34,5.5-8.97,7.06-13.84c1.56-4.87,2.41-9.97,2.32-15.37c-0.04-2.7-0.33-5.48-0.93-8.36c-0.3-1.44-0.68-2.91-1.17-4.41
		C217.21,70.47,216.65,68.94,215.8,67.33"/>
	<path class="st12" d="M260.65,24.23c-1.77,0.43-3.29,1.01-4.75,1.63c-1.45,0.62-2.8,1.3-4.08,2.03c-2.56,1.45-4.84,3.07-6.9,4.81
		c-4.12,3.5-7.39,7.5-10.03,11.88c-2.63,4.38-4.62,9.16-5.76,14.44c-0.57,2.64-0.91,5.42-0.98,8.36c-0.03,1.47,0.01,2.99,0.15,4.56
		c0.15,1.58,0.37,3.2,0.83,4.96c1.78-0.43,3.3-1,4.77-1.62c1.45-0.62,2.81-1.3,4.09-2.02c2.56-1.45,4.84-3.06,6.9-4.81
		c4.11-3.5,7.38-7.5,10-11.9c2.61-4.4,4.59-9.17,5.73-14.45c0.57-2.64,0.91-5.42,0.98-8.35c0.03-1.47-0.01-2.99-0.14-4.56
		C261.32,27.61,261.11,25.99,260.65,24.23"/>
	<path class="st13" d="M273.18,181.23c-1.55-0.96-3.03-1.63-4.5-2.24c-1.46-0.59-2.9-1.08-4.31-1.48c-2.83-0.8-5.58-1.29-8.27-1.53
		c-5.38-0.48-10.53,0.01-15.5,1.2c-4.97,1.21-9.76,3.15-14.32,6.04c-2.28,1.45-4.49,3.15-6.63,5.17c-1.07,1.01-2.12,2.11-3.14,3.31
		c-1.02,1.21-2.02,2.51-2.95,4.08c1.55,0.96,3.03,1.65,4.5,2.26c1.46,0.6,2.9,1.09,4.31,1.49c2.83,0.81,5.58,1.3,8.27,1.54
		c5.38,0.47,10.53-0.02,15.49-1.24c4.96-1.23,9.76-3.17,14.31-6.07c2.28-1.45,4.49-3.15,6.64-5.17c1.07-1.01,2.12-2.1,3.14-3.3
		C271.24,184.08,272.25,182.79,273.18,181.23"/>
	<path class="st10" d="M346.24,173.3c-1.38-1.19-2.74-2.09-4.09-2.92c-1.35-0.81-2.69-1.52-4.02-2.14
		c-2.67-1.24-5.31-2.15-7.93-2.81c-5.24-1.32-10.4-1.65-15.5-1.25c-5.1,0.41-10.13,1.57-15.09,3.71c-2.48,1.08-4.94,2.41-7.37,4.07
		c-1.21,0.83-2.42,1.75-3.62,2.78c-1.2,1.04-2.39,2.16-3.56,3.56c1.38,1.19,2.74,2.1,4.09,2.94c1.35,0.82,2.69,1.53,4.02,2.15
		c2.67,1.24,5.31,2.16,7.93,2.82c5.24,1.31,10.4,1.64,15.49,1.22c5.1-0.43,10.13-1.6,15.09-3.74c2.48-1.07,4.93-2.41,7.37-4.06
		c1.22-0.83,2.42-1.74,3.62-2.76C343.88,175.81,345.07,174.69,346.24,173.3"/>
	<path class="st14" d="M312.65,140.72c-1.65-0.78-3.19-1.29-4.71-1.73c-1.52-0.43-3-0.76-4.45-1c-2.9-0.49-5.69-0.67-8.39-0.61
		c-5.4,0.12-10.46,1.16-15.27,2.9c-4.81,1.75-9.36,4.2-13.57,7.58c-2.11,1.69-4.12,3.63-6.03,5.87c-0.95,1.12-1.87,2.33-2.76,3.64
		c-0.88,1.32-1.73,2.71-2.49,4.38c1.65,0.79,3.2,1.3,4.72,1.75c1.52,0.43,3,0.76,4.45,1.01c2.9,0.49,5.69,0.68,8.39,0.62
		c5.4-0.12,10.46-1.17,15.26-2.93c4.8-1.76,9.35-4.22,13.56-7.61c2.11-1.69,4.12-3.63,6.03-5.87c0.95-1.12,1.88-2.32,2.76-3.63
		C311.04,143.77,311.89,142.38,312.65,140.72"/>
	<path class="st15" d="M281.98,107.7c-1.8-0.3-3.43-0.36-5.01-0.37c-1.58,0.01-3.09,0.1-4.55,0.26c-2.92,0.33-5.65,0.92-8.23,1.72
		c-5.16,1.6-9.74,4-13.89,6.99c-4.14,3-7.84,6.61-10.96,11.02c-1.56,2.21-2.96,4.62-4.18,7.3c-0.61,1.34-1.16,2.76-1.65,4.26
		c-0.48,1.51-0.92,3.08-1.19,4.89c1.8,0.3,3.43,0.37,5.02,0.38c1.58,0,3.09-0.09,4.56-0.25c2.92-0.33,5.66-0.92,8.24-1.72
		c5.16-1.6,9.73-4.01,13.87-7.02c4.13-3.02,7.82-6.63,10.94-11.05c1.56-2.21,2.96-4.62,4.18-7.3c0.61-1.34,1.16-2.75,1.66-4.25
		C281.26,111.07,281.7,109.5,281.98,107.7"/>
	<path class="st4" d="M342.69,99.39c-1.74-0.54-3.34-0.82-4.91-1.04c-1.56-0.21-3.07-0.32-4.54-0.35c-2.94-0.07-5.73,0.15-8.39,0.59
		c-5.33,0.89-10.19,2.64-14.7,5.05c-4.51,2.41-8.66,5.49-12.35,9.44c-1.84,1.97-3.56,4.18-5.12,6.67c-0.78,1.25-1.52,2.57-2.21,3.99
		c-0.68,1.43-1.33,2.93-1.84,4.69c1.74,0.54,3.35,0.83,4.92,1.06c1.57,0.21,3.08,0.33,4.55,0.36c2.94,0.07,5.73-0.14,8.39-0.59
		c5.33-0.89,10.18-2.65,14.69-5.08c4.5-2.43,8.65-5.52,12.33-9.47c1.84-1.98,3.56-4.18,5.13-6.67c0.78-1.25,1.52-2.57,2.21-3.98
		C341.53,102.64,342.18,101.14,342.69,99.39"/>
	<path class="st16" d="M315.63,54.02c-1.82,0.05-3.43,0.3-4.99,0.6c-1.55,0.31-3.01,0.69-4.42,1.13c-2.8,0.88-5.37,1.99-7.75,3.26
		c-4.76,2.56-8.8,5.79-12.29,9.52c-3.49,3.74-6.43,7.99-8.65,12.91c-1.11,2.46-2.02,5.11-2.7,7.97c-0.34,1.43-0.61,2.93-0.8,4.49
		c-0.18,1.57-0.31,3.2-0.23,5.03c1.83-0.05,3.44-0.29,5-0.58c1.55-0.31,3.02-0.68,4.43-1.12c2.81-0.88,5.38-1.98,7.76-3.26
		c4.75-2.56,8.79-5.79,12.27-9.54c3.48-3.75,6.41-8.01,8.62-12.93c1.11-2.46,2.02-5.11,2.71-7.96c0.34-1.43,0.62-2.92,0.81-4.48
		C315.58,57.46,315.71,55.84,315.63,54.02"/>
	<path class="st17" d="M142.36,3.89c-1.04,1.49-1.8,2.93-2.49,4.36c-0.67,1.42-1.24,2.83-1.72,4.22c-0.96,2.78-1.6,5.5-1.99,8.17
		c-0.78,5.35-0.59,10.51,0.33,15.54c0.93,5.03,2.59,9.92,5.23,14.64c1.32,2.35,2.9,4.66,4.79,6.91c0.95,1.12,1.99,2.23,3.13,3.32
		c1.16,1.09,2.39,2.16,3.9,3.18c1.05-1.49,1.82-2.94,2.51-4.36c0.68-1.43,1.25-2.83,1.73-4.22c0.96-2.78,1.61-5.5,2-8.17
		c0.77-5.34,0.58-10.51-0.36-15.54c-0.95-5.03-2.62-9.92-5.26-14.63c-1.32-2.36-2.9-4.67-4.79-6.92c-0.95-1.12-1.98-2.23-3.12-3.32
		C145.09,5.98,143.86,4.91,142.36,3.89"/>
	<path class="st18" d="M92.26,24.23c1.77,0.43,3.29,1.01,4.75,1.63c1.45,0.62,2.8,1.3,4.08,2.03c2.56,1.45,4.84,3.07,6.9,4.81
		c4.12,3.5,7.39,7.5,10.03,11.88c2.63,4.38,4.62,9.16,5.76,14.44c0.57,2.64,0.91,5.42,0.98,8.36c0.03,1.47-0.01,2.99-0.15,4.56
		c-0.15,1.58-0.36,3.2-0.83,4.96c-1.78-0.43-3.3-1-4.77-1.62c-1.45-0.62-2.81-1.3-4.09-2.02c-2.56-1.45-4.84-3.06-6.9-4.81
		c-4.11-3.5-7.38-7.5-10-11.9c-2.61-4.4-4.59-9.17-5.73-14.45c-0.57-2.64-0.91-5.42-0.98-8.35c-0.03-1.47,0.01-2.99,0.14-4.56
		C91.59,27.61,91.8,25.99,92.26,24.23"/>
	<path class="st19" d="M6.67,173.3c1.38-1.19,2.74-2.09,4.09-2.92c1.35-0.81,2.69-1.52,4.02-2.14c2.67-1.24,5.31-2.15,7.93-2.81
		c5.24-1.32,10.4-1.65,15.5-1.25c5.1,0.41,10.13,1.57,15.09,3.71c2.48,1.08,4.94,2.41,7.37,4.07c1.22,0.83,2.42,1.75,3.62,2.78
		c1.2,1.04,2.39,2.16,3.56,3.56c-1.38,1.19-2.74,2.1-4.09,2.94c-1.35,0.82-2.69,1.53-4.02,2.15c-2.67,1.24-5.31,2.16-7.93,2.82
		c-5.24,1.31-10.4,1.64-15.49,1.22c-5.1-0.43-10.13-1.6-15.09-3.74c-2.48-1.07-4.93-2.41-7.37-4.06c-1.22-0.83-2.42-1.74-3.62-2.76
		C9.03,175.81,7.84,174.69,6.67,173.3"/>
	<path class="st4" d="M10.22,99.39c1.74-0.54,3.34-0.82,4.91-1.04c1.56-0.21,3.07-0.32,4.54-0.35c2.94-0.07,5.72,0.15,8.39,0.59
		c5.33,0.89,10.19,2.64,14.7,5.05c4.51,2.41,8.66,5.49,12.35,9.44c1.84,1.97,3.56,4.18,5.12,6.67c0.78,1.25,1.52,2.57,2.21,3.99
		c0.68,1.43,1.33,2.93,1.84,4.69c-1.74,0.54-3.35,0.83-4.92,1.06c-1.56,0.21-3.08,0.33-4.55,0.36c-2.94,0.07-5.73-0.14-8.39-0.59
		c-5.33-0.89-10.19-2.65-14.69-5.08c-4.5-2.43-8.65-5.52-12.33-9.47c-1.84-1.98-3.56-4.18-5.13-6.67c-0.78-1.25-1.52-2.57-2.21-3.98
		C11.39,102.64,10.74,101.14,10.22,99.39"/>
	<path class="st20" d="M37.28,54.02c1.82,0.05,3.43,0.3,4.99,0.6c1.55,0.31,3.01,0.69,4.42,1.13c2.8,0.88,5.37,1.99,7.75,3.26
		c4.76,2.56,8.8,5.79,12.29,9.52c3.49,3.74,6.43,7.99,8.65,12.91c1.11,2.46,2.02,5.11,2.7,7.97c0.34,1.43,0.61,2.93,0.81,4.49
		c0.18,1.57,0.31,3.2,0.23,5.03c-1.83-0.05-3.44-0.29-5-0.58c-1.55-0.31-3.02-0.68-4.43-1.12c-2.81-0.88-5.38-1.98-7.76-3.26
		c-4.75-2.56-8.79-5.79-12.27-9.54c-3.48-3.75-6.41-8.01-8.63-12.93c-1.11-2.46-2.02-5.11-2.71-7.96c-0.34-1.43-0.62-2.92-0.81-4.48
		C37.34,57.46,37.2,55.84,37.28,54.02"/>
	<path class="st21" d="M38.47,209.33c1.19-1.38,2.4-2.47,3.61-3.49c1.22-1,2.44-1.9,3.67-2.71c2.46-1.61,4.93-2.91,7.43-3.94
		c4.99-2.07,10.04-3.16,15.15-3.51c5.1-0.34,10.26,0.07,15.47,1.46c2.61,0.7,5.24,1.66,7.88,2.94c1.32,0.64,2.65,1.38,3.99,2.22
		c1.34,0.85,2.68,1.78,4.04,3c-1.19,1.39-2.4,2.48-3.61,3.5c-1.22,1.01-2.44,1.91-3.67,2.72c-2.46,1.62-4.93,2.92-7.43,3.95
		c-4.99,2.06-10.04,3.15-15.15,3.48c-5.1,0.32-10.26-0.1-15.47-1.49c-2.61-0.7-5.23-1.66-7.88-2.93c-1.32-0.64-2.65-1.37-3.99-2.21
		C41.18,211.46,39.83,210.54,38.47,209.33"/>
</g>
<g id="logo-text">
	<path class="st22" d="M264.6,248.61v25.02h-8.48v-3.35c-2.42,1.24-4.67,2.13-6.74,2.67c-2.07,0.55-3.96,0.82-5.67,0.82
		c-3.14,0-6.12-0.62-8.95-1.85c-2.83-1.24-5.31-2.91-7.45-5.03c-2.14-2.12-3.84-4.6-5.1-7.45c-1.26-2.85-1.89-5.89-1.89-9.13
		c0-1.09,0.07-2.22,0.21-3.38c0.14-1.17,0.38-2.29,0.71-3.39c0.81-2.76,1.99-5.19,3.53-7.31c1.54-2.11,3.34-3.88,5.38-5.31
		c2.04-1.43,4.25-2.51,6.63-3.24c2.38-0.74,4.78-1.11,7.2-1.11c3.61,0,7.12,0.81,10.51,2.42c3.4,1.62,6.26,4.14,8.59,7.56
		c-1.71,0.52-3.2,1.01-4.46,1.46c-1.26,0.45-2.7,0.91-4.31,1.39c-1.52-1.47-3.2-2.57-5.03-3.28c-1.83-0.71-3.65-1.07-5.45-1.07
		c-2,0-3.92,0.38-5.78,1.14c-1.85,0.76-3.48,1.83-4.88,3.21c-1.4,1.38-2.51,3.04-3.32,4.99c-0.81,1.95-1.16,4.09-1.07,6.42
		c0.09,2.24,0.59,4.23,1.5,5.99c0.9,1.76,2.04,3.26,3.42,4.49c1.38,1.24,2.96,2.19,4.74,2.85c1.78,0.67,3.6,1,5.45,1
		c2.19,0,4.45-0.64,6.77-1.93c2.33-1.28,4.56-3.33,6.7-6.13h-21.53v-8.48H264.6z"/>
	<path class="st22" d="M294.9,244.61c0-1.33-0.25-2.58-0.75-3.74c-0.5-1.16-1.18-2.17-2.03-3.03c-0.86-0.86-1.85-1.53-2.99-2.03
		c-1.14-0.5-2.38-0.75-3.71-0.75h-4.35v19.11h4.35c1.33,0,2.57-0.25,3.71-0.75c1.14-0.5,2.14-1.18,2.99-2.03
		c0.86-0.86,1.53-1.87,2.03-3.03C294.65,247.19,294.9,245.94,294.9,244.61 M302.39,273.63h-10.05l-7.06-10.98h-4.21v3.28h-8.49
		v-39.36h12.84c2.47,0,4.8,0.48,6.99,1.43c2.19,0.95,4.09,2.25,5.7,3.89c1.62,1.64,2.9,3.55,3.85,5.74
		c0.95,2.19,1.43,4.52,1.43,6.99c0,3.09-0.82,6.05-2.46,8.88c-1.64,2.83-3.96,5.17-6.95,7.02L302.39,273.63z"/>
	<path class="st22" d="M338.04,259.66l-8.7-14.9l-8.7,14.9H338.04z M329.34,227.93c2.28,3.95,4.52,7.82,6.74,11.62
		c2.21,3.8,4.41,7.57,6.6,11.3c2.19,3.73,4.37,7.48,6.56,11.26c2.18,3.78,4.42,7.62,6.7,11.51h-9.91l-3.14-5.49h-27.09l-1.57,2.35
		h-9.77L329.34,227.93z"/>
	<polygon class="st22" points="397.71,239.05 397.71,272.06 367.7,246.39 367.7,273.63 359.21,273.63 359.21,228.14 389.23,253.81 
		389.23,239.05 	"/>
	<path class="st22" d="M434.57,250.1c0-2.09-0.39-4.05-1.18-5.88c-0.78-1.83-1.85-3.42-3.21-4.77c-1.36-1.36-2.95-2.42-4.78-3.21
		c-1.83-0.78-3.79-1.18-5.88-1.18h-2.14v30.16h2.14c2.09,0,4.05-0.39,5.88-1.18c1.83-0.79,3.42-1.86,4.78-3.24
		c1.35-1.38,2.42-2.98,3.21-4.81C434.18,254.15,434.57,252.19,434.57,250.1 M419.53,226.57c3.23,0,6.27,0.62,9.12,1.85
		c2.85,1.24,5.35,2.92,7.49,5.06c2.14,2.14,3.83,4.63,5.06,7.48c1.23,2.85,1.85,5.89,1.85,9.13c0,3.23-0.62,6.27-1.85,9.12
		c-1.24,2.85-2.92,5.35-5.06,7.49c-2.14,2.14-4.63,3.83-7.49,5.06c-2.85,1.24-5.89,1.85-9.12,1.85h-10.62v-47.06H419.53z"/>
	<path class="st22" d="M482.91,265.15v8.48h-32.65v-47.06h19.53v8.49h-11.05v10.84h11.05c0,1.52-0.01,2.96-0.03,4.31
		c-0.03,1.35-0.04,2.72-0.04,4.1h-10.98v10.84H482.91z"/>
	<path class="st22" d="M522.98,226.57v27.24c0,2.71-0.52,5.28-1.57,7.7c-1.05,2.42-2.47,4.53-4.28,6.31
		c-1.81,1.78-3.91,3.2-6.31,4.24c-2.4,1.05-4.98,1.57-7.74,1.57c-2.76,0-5.33-0.52-7.74-1.57c-2.4-1.04-4.5-2.46-6.31-4.24
		c-1.81-1.78-3.23-3.89-4.28-6.31c-1.04-2.42-1.57-4.99-1.57-7.7v-19.32h8.48v19.32c0,1.57,0.3,3.04,0.89,4.42
		c0.6,1.38,1.4,2.59,2.42,3.63c1.02,1.05,2.24,1.87,3.64,2.46c1.4,0.59,2.89,0.89,4.46,0.89c1.57,0,3.04-0.3,4.42-0.89
		c1.38-0.59,2.59-1.41,3.63-2.46c1.04-1.04,1.87-2.26,2.46-3.63c0.59-1.38,0.89-2.85,0.89-4.42v-27.24H522.98z"/>
	<path class="st22" d="M555.84,244.61c0-1.33-0.25-2.58-0.75-3.74c-0.5-1.16-1.17-2.17-2.03-3.03c-0.86-0.86-1.85-1.53-2.99-2.03
		c-1.14-0.5-2.38-0.75-3.71-0.75h-4.35v19.11h4.35c1.33,0,2.57-0.25,3.71-0.75c1.14-0.5,2.14-1.18,2.99-2.03
		c0.86-0.86,1.53-1.87,2.03-3.03C555.59,247.19,555.84,245.94,555.84,244.61 M563.33,273.63h-10.05l-7.06-10.98h-4.21v3.28h-8.48
		v-39.36h12.83c2.47,0,4.8,0.48,6.98,1.43c2.19,0.95,4.09,2.25,5.7,3.89c1.61,1.64,2.9,3.55,3.85,5.74
		c0.95,2.19,1.43,4.52,1.43,6.99c0,3.09-0.82,6.05-2.46,8.88c-1.64,2.83-3.96,5.17-6.95,7.02L563.33,273.63z"/>
	<polygon class="st22" points="305.08,298.45 305.08,334.02 272.73,306.36 272.73,335.71 263.59,335.71 263.59,286.69 
		295.94,314.35 295.94,298.45 	"/>
	<path class="st22" d="M345.11,320.65l-9.37-16.06l-9.38,16.06H345.11z M335.74,286.46c2.46,4.25,4.88,8.43,7.26,12.52
		c2.38,4.1,4.75,8.16,7.11,12.18c2.36,4.02,4.71,8.07,7.07,12.14c2.36,4.07,4.76,8.21,7.22,12.41h-10.68l-3.38-5.92h-29.2
		l-1.69,2.54h-10.53L335.74,286.46z"/>
	<polygon class="st22" points="386.45,285 386.45,294.14 377.15,294.14 377.15,335.71 368.01,335.71 368.01,294.14 358.71,294.14 
		358.71,285 	"/>
	<path class="st22" d="M433.01,285v29.35c0,2.92-0.56,5.69-1.69,8.3c-1.13,2.61-2.66,4.88-4.61,6.8c-1.95,1.92-4.22,3.44-6.8,4.57
		c-2.59,1.13-5.37,1.69-8.34,1.69c-2.97,0-5.75-0.56-8.34-1.69c-2.58-1.13-4.85-2.65-6.8-4.57c-1.95-1.92-3.48-4.19-4.61-6.8
		c-1.12-2.61-1.69-5.38-1.69-8.3v-20.82h9.14v20.82c0,1.69,0.32,3.28,0.96,4.76c0.64,1.49,1.51,2.79,2.61,3.92
		c1.1,1.13,2.41,2.01,3.92,2.65c1.51,0.64,3.11,0.96,4.8,0.96c1.69,0,3.28-0.32,4.76-0.96c1.48-0.64,2.79-1.52,3.92-2.65
		c1.13-1.13,2.01-2.43,2.65-3.92c0.64-1.49,0.96-3.07,0.96-4.76V285H433.01z"/>
	<path class="st22" d="M468.43,304.44c0-1.44-0.27-2.78-0.81-4.04c-0.54-1.25-1.27-2.34-2.19-3.26c-0.92-0.92-2-1.65-3.23-2.19
		c-1.23-0.54-2.56-0.81-4-0.81h-4.69v20.59h4.69c1.43,0,2.77-0.27,4-0.81c1.23-0.54,2.3-1.27,3.23-2.19
		c0.92-0.92,1.65-2.01,2.19-3.27C468.17,307.22,468.43,305.87,468.43,304.44 M476.5,335.71h-10.83l-7.61-11.83h-4.54v3.53h-9.14V285
		h13.83c2.66,0,5.17,0.51,7.53,1.54c2.36,1.02,4.41,2.42,6.15,4.19c1.74,1.77,3.12,3.83,4.15,6.18c1.02,2.36,1.54,4.87,1.54,7.53
		c0,3.33-0.89,6.52-2.65,9.57c-1.76,3.05-4.26,5.57-7.49,7.57L476.5,335.71z"/>
	<path class="st22" d="M521.07,326.57v9.14h-35.19V285h21.05v9.14h-11.91v11.68h11.91c0,1.64-0.02,3.19-0.04,4.65
		c-0.03,1.46-0.04,2.93-0.04,4.42h-11.83v11.68H521.07z"/>
</g>
</svg>
